# xmcd
#
# Track frame offsets:
# 200
# 12727
# 25747
# 36825
# 45615
# 59542
# 71582
# 85182
# 95010
# 107080
# 119155
#
# Disc length: 1744 seconds
#
#
# Revision: 0
# Processed by: cddbd v1.5.2PL0 Copyright (c) Steve Scherf et al.
# Submitted via: Nero 7, 11, 10, 0 
#
DISCID=9a06ce0b
DTITLE=Little Milton and Clayton Love - The Bobbin Blues Masters - Part 1
DYEAR=1994
DGENRE=Blues
TTITLE0=Cross My Heart
TTITLE1=Dead Love
TTITLE2=Hey Girl
TTITLE3=Hold Me Tight
TTITLE4=I Found A New Love
TTITLE5=(I Have The) Same Old Blues
TTITLE6=I'm A Lonely Man
TTITLE7=I'm In Love
TTITLE8=Bye Bye Baby
TTITLE9=It's You
TTITLE10=Limited Love
EXTD=
EXTT0=Cross My Heart
EXTT1=Dead Love
EXTT2=Hey Girl
EXTT3=Hold Me Tight
EXTT4=I Found A New Love
EXTT5=(I Have The) Same Old Blues
EXTT6=I'm A Lonely Man
EXTT7=I'm In Love
EXTT8=Bye Bye Baby
EXTT9=It's You
EXTT10=Limited Love
PLAYORDER=
